<svg width="20" height="20" viewBox="0 0 20 20" fill="none" xmlns="http://www.w3.org/2000/svg">
<path d="M9.9999 13.7501C8.02464 13.7501 6.42568 12.2212 6.27855 10.2837L3.54678 8.17246C3.18766 8.62298 2.85719 9.09928 2.59053 9.62012C2.53096 9.73796 2.49992 9.86815 2.49992 10.0002C2.49992 10.1322 2.53096 10.2624 2.59053 10.3803C4.00277 13.1357 6.7986 15.0001 9.9999 15.0001C10.7007 15.0001 11.3767 14.8959 12.0283 14.7277L10.677 13.6821C10.4538 13.7252 10.2272 13.748 9.9999 13.7501ZM18.1723 15.2631L15.2934 13.0381C16.1679 12.3011 16.8872 11.3975 17.4093 10.38C17.4689 10.2622 17.4999 10.132 17.4999 9.99993C17.4999 9.86789 17.4689 9.7377 17.4093 9.61985C15.997 6.86439 13.2012 5.00006 9.9999 5.00006C8.65915 5.00169 7.34017 5.33922 6.16344 5.98183L2.85042 3.42116C2.80722 3.38754 2.75782 3.36276 2.70504 3.34825C2.65226 3.33373 2.59713 3.32976 2.54281 3.33655C2.4885 3.34335 2.43605 3.36078 2.38847 3.38785C2.34089 3.41493 2.29912 3.45111 2.26553 3.49433L1.75433 4.15241C1.68652 4.23964 1.65613 4.35024 1.66985 4.45988C1.68358 4.56952 1.74029 4.66921 1.82751 4.73704L17.1494 16.579C17.1926 16.6126 17.242 16.6374 17.2948 16.6519C17.3476 16.6664 17.4027 16.6704 17.457 16.6636C17.5113 16.6568 17.5638 16.6393 17.6113 16.6123C17.6589 16.5852 17.7007 16.549 17.7343 16.5058L18.2457 15.8477C18.3135 15.7605 18.3439 15.6498 18.3301 15.5402C18.3163 15.4306 18.2596 15.3309 18.1723 15.2631ZM13.3879 11.5652L12.3645 10.774C12.4507 10.5249 12.4964 10.2636 12.4999 10.0001C12.505 9.61419 12.4195 9.23251 12.2503 8.88567C12.0811 8.53884 11.8329 8.23651 11.5257 8.00298C11.2185 7.76946 10.8608 7.61124 10.4813 7.54104C10.1019 7.47083 9.71122 7.4906 9.34079 7.59876C9.49782 7.81155 9.58277 8.06894 9.58324 8.3334C9.57935 8.4214 9.5659 8.50872 9.54313 8.59381L7.6262 7.1123C8.29209 6.55585 9.13212 6.2507 9.9999 6.25006C10.4924 6.24979 10.9802 6.3466 11.4353 6.53496C11.8904 6.72332 12.3039 6.99953 12.6522 7.3478C13.0004 7.69608 13.2767 8.10958 13.465 8.56468C13.6534 9.01977 13.7502 9.50753 13.7499 10.0001C13.7499 10.5633 13.6121 11.0883 13.3879 11.5654V11.5652Z" fill="#9FA2B4"/>
</svg>
